<svg width="175" height="20" viewBox="0 0 175 20" fill="none" xmlns="http://www.w3.org/2000/svg">
<path d="M0.517045 1.54545H5.06818L9.875 13.2727H10.0795L14.8864 1.54545H19.4375V19H15.858V7.6392H15.7131L11.196 18.9148H8.75852L4.24148 7.59659H4.09659V19H0.517045V1.54545ZM26.1428 19.2472C25.3075 19.2472 24.5632 19.1023 23.9098 18.8125C23.2564 18.517 22.7393 18.0824 22.3587 17.5085C21.9837 16.929 21.7962 16.2074 21.7962 15.3438C21.7962 14.6165 21.9297 14.0057 22.1967 13.5114C22.4638 13.017 22.8274 12.6193 23.2876 12.3182C23.7479 12.017 24.2706 11.7898 24.8558 11.6364C25.4467 11.483 26.0661 11.375 26.7138 11.3125C27.4751 11.233 28.0888 11.1591 28.5547 11.0909C29.0206 11.017 29.3587 10.9091 29.5689 10.767C29.7791 10.625 29.8842 10.4148 29.8842 10.1364V10.0852C29.8842 9.54545 29.7138 9.12784 29.3729 8.83239C29.0376 8.53693 28.5604 8.3892 27.9411 8.3892C27.2876 8.3892 26.7678 8.53409 26.3814 8.82386C25.995 9.10795 25.7393 9.46591 25.6143 9.89773L22.2564 9.625C22.4268 8.82955 22.7621 8.14205 23.2621 7.5625C23.7621 6.97727 24.407 6.52841 25.1967 6.21591C25.9922 5.89773 26.9126 5.73864 27.9581 5.73864C28.6854 5.73864 29.3814 5.82386 30.0462 5.99432C30.7166 6.16477 31.3104 6.42898 31.8274 6.78693C32.3501 7.14489 32.7621 7.60511 33.0632 8.16761C33.3643 8.72443 33.5149 9.39205 33.5149 10.1705V19H30.0717V17.1847H29.9695C29.7592 17.5938 29.478 17.9545 29.1257 18.267C28.7734 18.5739 28.3501 18.8153 27.8558 18.9915C27.3615 19.1619 26.7905 19.2472 26.1428 19.2472ZM27.1825 16.7415C27.7166 16.7415 28.1882 16.6364 28.5973 16.4261C29.0064 16.2102 29.3274 15.9205 29.5604 15.5568C29.7933 15.1932 29.9098 14.7812 29.9098 14.321V12.9318C29.7962 13.0057 29.6399 13.0739 29.4411 13.1364C29.2479 13.1932 29.0291 13.2472 28.7848 13.2983C28.5405 13.3437 28.2962 13.3864 28.0518 13.4261C27.8075 13.4602 27.5859 13.4915 27.3871 13.5199C26.9609 13.5824 26.5888 13.6818 26.2706 13.8182C25.9524 13.9545 25.7053 14.1392 25.5291 14.3722C25.353 14.5994 25.2649 14.8835 25.2649 15.2244C25.2649 15.7188 25.4439 16.0966 25.8018 16.358C26.1655 16.6136 26.6257 16.7415 27.1825 16.7415ZM39.9624 11.4318V19H36.3317V5.90909H39.7919V8.21875H39.9453C40.2351 7.45739 40.7209 6.85511 41.4027 6.41193C42.0845 5.96307 42.9112 5.73864 43.8828 5.73864C44.7919 5.73864 45.5845 5.9375 46.2607 6.33523C46.9368 6.73295 47.4624 7.30114 47.8374 8.03977C48.2124 8.77273 48.3999 9.64773 48.3999 10.6648V19H44.7692V11.3125C44.7749 10.5114 44.5703 9.88636 44.1555 9.4375C43.7408 8.98295 43.1697 8.75568 42.4425 8.75568C41.9538 8.75568 41.522 8.8608 41.147 9.07102C40.7777 9.28125 40.4879 9.58807 40.2777 9.99148C40.0732 10.3892 39.968 10.8693 39.9624 11.4318ZM59.6562 13.4261V5.90909H63.2869V19H59.8011V16.6222H59.6648C59.3693 17.3892 58.8778 18.0057 58.1903 18.4716C57.5085 18.9375 56.6761 19.1705 55.6932 19.1705C54.8182 19.1705 54.0483 18.9716 53.3835 18.5739C52.7188 18.1761 52.1989 17.6108 51.8239 16.8778C51.4545 16.1449 51.267 15.267 51.2614 14.2443V5.90909H54.892V13.5966C54.8977 14.3693 55.1051 14.9801 55.5142 15.429C55.9233 15.8778 56.4716 16.1023 57.1591 16.1023C57.5966 16.1023 58.0057 16.0028 58.3864 15.804C58.767 15.5994 59.0739 15.2983 59.3068 14.9006C59.5455 14.5028 59.6619 14.0114 59.6562 13.4261ZM72.157 19.2557C70.8104 19.2557 69.6513 18.983 68.6797 18.4375C67.7138 17.8864 66.9695 17.108 66.4467 16.1023C65.924 15.0909 65.6626 13.8949 65.6626 12.5142C65.6626 11.1676 65.924 9.9858 66.4467 8.96875C66.9695 7.9517 67.7053 7.15909 68.6541 6.59091C69.6087 6.02273 70.728 5.73864 72.0121 5.73864C72.8757 5.73864 73.6797 5.87784 74.424 6.15625C75.174 6.42898 75.8274 6.84091 76.3842 7.39205C76.9467 7.94318 77.3842 8.63636 77.6967 9.47159C78.0092 10.3011 78.1655 11.2727 78.1655 12.3864V13.3835H67.1115V11.1335H74.7479C74.7479 10.6108 74.6342 10.1477 74.407 9.74432C74.1797 9.34091 73.8643 9.02557 73.4609 8.7983C73.0632 8.56534 72.6001 8.44886 72.0717 8.44886C71.5206 8.44886 71.032 8.5767 70.6058 8.83239C70.1854 9.08239 69.8558 9.42045 69.6172 9.84659C69.3786 10.267 69.2564 10.7358 69.2507 11.2528V13.392C69.2507 14.0398 69.37 14.5994 69.6087 15.071C69.853 15.5426 70.1967 15.9062 70.6399 16.1619C71.0831 16.4176 71.6087 16.5455 72.2166 16.5455C72.62 16.5455 72.9893 16.4886 73.3246 16.375C73.6598 16.2614 73.9467 16.0909 74.1854 15.8636C74.424 15.6364 74.6058 15.358 74.7308 15.0284L78.0888 15.25C77.9183 16.0568 77.5689 16.7614 77.0405 17.3636C76.5178 17.9602 75.8416 18.4261 75.0121 18.7614C74.1882 19.0909 73.2365 19.2557 72.157 19.2557ZM84.1655 1.54545V19H80.5348V1.54545H84.1655ZM95.7053 19H91.7507L97.7763 1.54545H102.532L108.549 19H104.594L100.222 5.53409H100.086L95.7053 19ZM95.4581 12.1392H104.799V15.0199H95.4581V12.1392ZM117.387 5.90909V8.63636H109.308V5.90909H117.387ZM111.157 19V4.96307C111.157 4.0142 111.342 3.22727 111.711 2.60227C112.086 1.97727 112.597 1.50852 113.245 1.19602C113.893 0.883522 114.629 0.727272 115.452 0.727272C116.009 0.727272 116.518 0.769886 116.978 0.855114C117.444 0.940341 117.79 1.01705 118.018 1.08523L117.37 3.8125C117.228 3.76705 117.052 3.72443 116.842 3.68466C116.637 3.64489 116.427 3.625 116.211 3.625C115.677 3.625 115.305 3.75 115.094 4C114.884 4.24432 114.779 4.58807 114.779 5.03125V19H111.157ZM125.051 19.2557C123.727 19.2557 122.582 18.9744 121.616 18.4119C120.656 17.8437 119.915 17.054 119.392 16.0426C118.869 15.0256 118.608 13.8466 118.608 12.5057C118.608 11.1534 118.869 9.97159 119.392 8.96023C119.915 7.94318 120.656 7.15341 121.616 6.59091C122.582 6.02273 123.727 5.73864 125.051 5.73864C126.375 5.73864 127.517 6.02273 128.477 6.59091C129.443 7.15341 130.188 7.94318 130.71 8.96023C131.233 9.97159 131.494 11.1534 131.494 12.5057C131.494 13.8466 131.233 15.0256 130.71 16.0426C130.188 17.054 129.443 17.8437 128.477 18.4119C127.517 18.9744 126.375 19.2557 125.051 19.2557ZM125.068 16.4432C125.67 16.4432 126.173 16.2727 126.577 15.9318C126.98 15.5852 127.284 15.1136 127.489 14.517C127.699 13.9205 127.804 13.2415 127.804 12.4801C127.804 11.7188 127.699 11.0398 127.489 10.4432C127.284 9.84659 126.98 9.375 126.577 9.02841C126.173 8.68182 125.67 8.50852 125.068 8.50852C124.46 8.50852 123.949 8.68182 123.534 9.02841C123.125 9.375 122.815 9.84659 122.605 10.4432C122.401 11.0398 122.298 11.7188 122.298 12.4801C122.298 13.2415 122.401 13.9205 122.605 14.517C122.815 15.1136 123.125 15.5852 123.534 15.9318C123.949 16.2727 124.46 16.4432 125.068 16.4432ZM137.486 11.4318V19H133.855V5.90909H137.315V8.21875H137.469C137.759 7.45739 138.244 6.85511 138.926 6.41193C139.608 5.96307 140.435 5.73864 141.406 5.73864C142.315 5.73864 143.108 5.9375 143.784 6.33523C144.46 6.73295 144.986 7.30114 145.361 8.03977C145.736 8.77273 145.923 9.64773 145.923 10.6648V19H142.293V11.3125C142.298 10.5114 142.094 9.88636 141.679 9.4375C141.264 8.98295 140.693 8.75568 139.966 8.75568C139.477 8.75568 139.045 8.8608 138.67 9.07102C138.301 9.28125 138.011 9.58807 137.801 9.99148C137.597 10.3892 137.491 10.8693 137.486 11.4318ZM159.677 9.64205L156.353 9.84659C156.296 9.5625 156.174 9.30682 155.987 9.07955C155.799 8.84659 155.552 8.66193 155.245 8.52557C154.944 8.38352 154.583 8.3125 154.163 8.3125C153.6 8.3125 153.126 8.43182 152.739 8.67045C152.353 8.90341 152.16 9.21591 152.16 9.60795C152.16 9.92045 152.285 10.1847 152.535 10.4006C152.785 10.6165 153.214 10.7898 153.822 10.9205L156.191 11.3977C157.464 11.6591 158.413 12.0795 159.038 12.6591C159.663 13.2386 159.975 14 159.975 14.9432C159.975 15.8011 159.722 16.554 159.217 17.2017C158.717 17.8494 158.029 18.3551 157.154 18.7188C156.285 19.0767 155.282 19.2557 154.146 19.2557C152.413 19.2557 151.032 18.8949 150.004 18.1733C148.981 17.446 148.381 16.4574 148.205 15.2074L151.776 15.0199C151.884 15.5483 152.146 15.9517 152.56 16.2301C152.975 16.5028 153.506 16.6392 154.154 16.6392C154.79 16.6392 155.302 16.517 155.688 16.2727C156.08 16.0227 156.279 15.7017 156.285 15.3097C156.279 14.9801 156.14 14.7102 155.867 14.5C155.594 14.2841 155.174 14.1193 154.606 14.0057L152.339 13.554C151.06 13.2983 150.109 12.8551 149.484 12.2244C148.864 11.5937 148.555 10.7898 148.555 9.8125C148.555 8.97159 148.782 8.24716 149.237 7.6392C149.697 7.03125 150.342 6.5625 151.171 6.23295C152.006 5.90341 152.984 5.73864 154.103 5.73864C155.756 5.73864 157.058 6.08807 158.006 6.78693C158.961 7.4858 159.518 8.4375 159.677 9.64205ZM168.176 19.2557C166.852 19.2557 165.707 18.9744 164.741 18.4119C163.781 17.8437 163.04 17.054 162.517 16.0426C161.994 15.0256 161.733 13.8466 161.733 12.5057C161.733 11.1534 161.994 9.97159 162.517 8.96023C163.04 7.94318 163.781 7.15341 164.741 6.59091C165.707 6.02273 166.852 5.73864 168.176 5.73864C169.5 5.73864 170.642 6.02273 171.602 6.59091C172.568 7.15341 173.312 7.94318 173.835 8.96023C174.358 9.97159 174.619 11.1534 174.619 12.5057C174.619 13.8466 174.358 15.0256 173.835 16.0426C173.312 17.054 172.568 17.8437 171.602 18.4119C170.642 18.9744 169.5 19.2557 168.176 19.2557ZM168.193 16.4432C168.795 16.4432 169.298 16.2727 169.702 15.9318C170.105 15.5852 170.409 15.1136 170.614 14.517C170.824 13.9205 170.929 13.2415 170.929 12.4801C170.929 11.7188 170.824 11.0398 170.614 10.4432C170.409 9.84659 170.105 9.375 169.702 9.02841C169.298 8.68182 168.795 8.50852 168.193 8.50852C167.585 8.50852 167.074 8.68182 166.659 9.02841C166.25 9.375 165.94 9.84659 165.73 10.4432C165.526 11.0398 165.423 11.7188 165.423 12.4801C165.423 13.2415 165.526 13.9205 165.73 14.517C165.94 15.1136 166.25 15.5852 166.659 15.9318C167.074 16.2727 167.585 16.4432 168.193 16.4432Z" fill="black"/>
</svg>
